PathFileType   4   (X/Y/Z)																																																																																																																							
DataRate	CameraRate	NumFrames	NumMarkers	Units	OrigDataRate	OrigDataStartFrame	OrigNumFrames																																																																																																																
120	120	4	37	mm	120	47	125																																																																																																																
Frame#	Time	Sternum	R.Acromium	L.Acromium	Top.Head	R.ASIS	L.ASIS	V.Sacral	R.Thigh.Upper	R.Thigh.Front	R.Thigh.Rear	R.Knee.Lat	R.Knee.Med	R.Shank.Upper	R.Shank.Front	R.Shank.Rear	R.Ankle.Lat	R.Ankle.Med	R.Heel	R.Midfoot.Sup	R.Midfoot.Lat	R.Toe.Lat	R.Toe.Med	R.Toe.Tip	L.Thigh.Upper	L.Thigh.Front	L.Thigh.Rear	L.Knee.Lat	L.Knee.Med	L.Shank.Upper	L.Shank.Front	L.Shank.Rear	L.Ankle.Lat	L.Ankle.Med	L.Heel	L.Midfoot.Sup	L.Midfoot.Lat	L.Toe.Lat	L.Toe.Med	L.Toe.Tip																																																																															
 	 	X1	Y1	Z1	X2	Y2	Z2	X3	Y3	Z3	X4	Y4	Z4	X5	Y5	Z5	X6	Y6	Z6	X7	Y7	Z7	X8	Y8	Z8	X9	Y9	Z9	X10	Y10	Z10	X11	Y11	Z11	X12	Y12	Z12	X13	Y13	Z13	X14	Y14	Z14	X15	Y15	Z15	X16	Y16	Z16	X17	Y17	Z17	X18	Y18	Z18	X19	Y19	Z19	X20	Y20	Z20	X21	Y21	Z21	X22	Y22	Z22	X23	Y23	Z23	X24	Y24	Z24	X25	Y25	Z25	X26	Y26	Z26	X27	Y27	Z27	X28	Y28	Z28	X29	Y29	Z29	X30	Y30	Z30	X31	Y31	Z31	X32	Y32	Z32	X33	Y33	Z33	X34	Y34	Z34	X35	Y35	Z35	X36	Y36	Z36	X37	Y37	Z37	X38	Y38	Z38	X39	Y39	Z39	
																																																																																																																							
	47	0.53333	1760.656534	-0.001002095	1336.067276	1684.222038	-161.9453511	1400.862545	1686.962774	165.1979949	1400.63524	1784.340401	-10.08809499	1627.284308	1790.489934	-117.7896216	974.7775775	1796.747084	119.399185	967.8606145	1614.297158	-5.611229398	963.4338902	1869.779772	-173.4115572	680.131084	1956.345969	-67.95180237	645.9152452	1916.3625	-162.9734513	554.1601516	1917.122126	-142.5943975	449.8286222	1923.253315	-8.355853302	432.3011769	1892.968578	-154.6508593	406.2813374	1984.101619	-93.81404015	390.258676	1934.946743	-165.0122006	319.0088663	2020.650588	-136.9768135	11.8178724	2024.809393	-37.22329306	29.74402323	1963.109079	-79.10633289	-37.87115287	2101.607012	-41.71858376	25.64231804	2103.565814	-155.3841374	4.076336882	2201.379084	-165.0174344	12.82026937	2198.93928	-50.15543807	26.67334001	2259.382808	-83.79364801	49.32596122	1700.540278	178.8034865	642.9165041	1774.422028	95.03600439	578.3525371	1662.537077	161.7547942	528.2144353	1601.221628	144.5366564	394.8403265	1602.721342	15.87918741	395.2981188	1583.53124	162.4477689	373.5451045	1606.727692	100.5194763	302.7501811	1546.744226	174.5177999	336.9199919	1425.292088	136.4325857	7.423148864	1439.771836	34.31683281	29.52658534	1340.507428	76.11439987	-0.917852579	1522.115872	48.15109198	-19.76519969	1502.777352	152.6198727	-17.46247144	1566.404275	163.716336	-49.83317156	1584.327455	55.50675189	-51.98895361	1636.179908	82.30973808	-57.27792265
	48	0.54167	1770.358443	-0.001002095	1334.697838	1693.835158	-161.9453511	1399.388222	1696.576203	165.1979949	1399.164676	1793.642909	-10.08809499	1625.947077	1800.640804	-117.7896216	973.2798072	1806.897243	119.399185	966.3622006	1624.446862	-5.611229398	961.9542431	1879.706386	-173.4115572	678.4707136	1966.235074	-67.95180237	644.160128	1926.151181	-162.9734513	552.4488608	1926.796591	-142.5943975	448.1165623	1932.908588	-8.355853302	430.5824155	1903.410807	-154.6508593	404.4941892	1994.74087	-93.81404015	389.6356369	1946.499101	-165.0122006	317.7644395	2036.115548	-136.9768135	11.69198377	2040.045287	-37.22329306	29.66973927	1978.7621	-79.10633289	-38.1943189	2116.992996	-41.71858376	25.89825419	2119.042041	-155.3841374	4.340660138	2216.817859	-165.0174344	13.49389609	2214.320096	-50.15543807	27.33663403	2274.668286	-83.79364801	50.24203247	1709.026051	178.8034865	641.5279143	1782.446594	95.03600439	576.4399523	1670.207768	161.7547942	527.0991208	1607.944986	144.5366564	394.164614	1609.447918	15.87918741	394.6117249	1589.547098	162.4477689	373.170734	1611.625516	100.5194763	302.0192052	1552.187733	174.5177999	337.1296316	1425.560453	136.4325857	9.586774108	1440.386576	34.31683281	31.45938431	1340.682126	76.11439987	2.284651513	1522.0504	48.15109198	-18.74861785	1502.741017	152.6198727	-16.21314379	1565.973454	163.716336	-49.34781769	1583.869369	55.50675189	-51.71930988	1635.654361	82.30973808	-57.63240544
	49	0.55	1780.111854	-0.001002095	1333.396735	1703.487512	-161.9453511	1397.967387	1706.228904	165.1979949	1397.748128	1802.940889	-10.08809499	1624.682026	1810.902603	-117.7896216	971.8197332	1817.157424	119.399185	964.9006635	1634.706017	-5.611229398	960.5353795	1889.737839	-173.4115572	676.8639366	1976.230161	-67.95180237	642.4617783	1936.049212	-162.9734513	550.7929919	1936.584184	-142.5943975	446.4600687	1942.677618	-8.355853302	428.9194621	1913.737792	-154.6508593	402.7991688	2005.195155	-93.81404015	388.7454255	1957.588138	-165.0122006	316.452208	2049.89632	-136.9768135	11.18076239	2053.667598	-37.22329306	29.1924253	1992.483935	-79.10633289	-38.61656553	2130.760897	-41.71858376	25.3765617	2132.794435	-155.3841374	3.817499349	2230.576812	-165.0174344	12.90040292	2228.089006	-50.15543807	26.74493392	2288.453657	-83.79364801	49.60691808	1717.71274	178.8034865	640.1914946	1790.697203	95.03600439	574.6149212	1678.131542	161.7547942	526.0243512	1614.982846	144.5366564	393.508392	1616.48873	15.87918741	393.9454614	1595.830547	162.4477689	372.8425197	1616.744945	100.5194763	301.3401805	1557.888023	174.5177999	337.4158616	1425.932627	136.4325857	11.98297278	1441.113703	34.31683281	33.61073189	1340.966323	76.11439987	5.813332687	1522.042014	48.15109198	-17.60553504	1502.767679	152.6198727	-14.81610378	1565.558472	163.716336	-48.78025986	1583.42162	55.50675189	-51.38711742	1635.124289	82.30973808	-57.98136655
	50	0.55833	1789.918057	-0.001002095	1332.177305	1713.179817	-161.9453511	1396.612555	1715.921591	165.1979949	1396.398136	1812.232711	-10.08809499	1623.502452	1821.280415	-117.7896216	970.4117737	1827.532808	119.399185	963.4905097	1645.07988	-5.611229398	959.1892454	1899.901577	-173.4115572	675.3406749	1986.362371	-67.95180237	640.8593565	1946.097526	-162.9734513	549.2273899	1946.536992	-142.5943975	444.8940207	1952.614367	-8.355853302	427.3478435	1923.993154	-154.6508593	401.2205878	2015.517239	-93.81404015	387.6081426	1968.259475	-165.0122006	315.0861389	2062.039027	-136.9768135	10.26348286	2065.723384	-37.22329306	28.29312659	2004.312518	-79.10633289	-39.14654225	2142.958692	-41.71858376	24.04267171	2144.867024	-155.3841374	2.472166033	2242.700488	-165.0174344	10.98719301	2240.293106	-50.15543807	24.84593484	2300.789475	-83.79364801	47.35705709	1726.616776	178.8034865	638.9177661	1799.1938	95.03600439	572.8905406	1686.32943	161.7547942	524.9978922	1622.361426	144.5366564	392.875481	1623.869987	15.87918741	393.3032177	1602.408038	162.4477689	372.5661316	1622.112653	100.5194763	300.7209874	1563.872994	174.5177999	337.7849074	1426.443791	136.4325857	14.62549523	1441.987733	34.31683281	35.99394994	1341.397289	76.11439987	9.706409935	1522.112126	48.15109198	-16.35116371	1502.880529	152.6198727	-13.28089086	1565.169236	163.716336	-48.15730968	1582.992459	55.50675189	-51.02444448	1634.593443	82.30973808	-58.372135
